<mxfile host="app.diagrams.net" agent="Mozilla/5.0 (Windows NT 10.0; Win64; x64) AppleWebKit/537.36 (KHTML, like Gecko) Chrome/131.0.0.0 Safari/537.36" version="24.9.0">
  <diagram name="Page-1" id="9Vwv7dURqK3vntyQqGJB">
    <mxGraphModel dx="1674" dy="784" grid="1" gridSize="10" guides="1" tooltips="1" connect="1" arrows="1" fold="1" page="1" pageScale="1" pageWidth="827" pageHeight="1169" math="0" shadow="0">
      <root>
        <mxCell id="0" />
        <mxCell id="1" parent="0" />
        <mxCell id="Np0HdGk0aIkS-JHJRyrp-2" value="" style="rounded=0;whiteSpace=wrap;html=1;" vertex="1" parent="1">
          <mxGeometry x="60" y="40" width="160" height="400" as="geometry" />
        </mxCell>
        <mxCell id="Np0HdGk0aIkS-JHJRyrp-3" value="" style="rounded=0;whiteSpace=wrap;html=1;" vertex="1" parent="1">
          <mxGeometry x="80" y="320" width="120" height="60" as="geometry" />
        </mxCell>
        <mxCell id="Np0HdGk0aIkS-JHJRyrp-4" value="" style="rounded=1;whiteSpace=wrap;html=1;" vertex="1" parent="1">
          <mxGeometry x="105" y="400" width="70" height="20" as="geometry" />
        </mxCell>
        <mxCell id="Np0HdGk0aIkS-JHJRyrp-6" value="" style="rounded=0;whiteSpace=wrap;html=1;" vertex="1" parent="1">
          <mxGeometry x="80" y="210" width="120" height="10" as="geometry" />
        </mxCell>
        <mxCell id="Np0HdGk0aIkS-JHJRyrp-7" value="" style="rounded=0;whiteSpace=wrap;html=1;" vertex="1" parent="1">
          <mxGeometry x="80" y="260" width="120" height="10" as="geometry" />
        </mxCell>
        <mxCell id="Np0HdGk0aIkS-JHJRyrp-9" value="" style="rounded=0;whiteSpace=wrap;html=1;" vertex="1" parent="1">
          <mxGeometry x="80" y="110" width="120" height="60" as="geometry" />
        </mxCell>
        <mxCell id="Np0HdGk0aIkS-JHJRyrp-11" value="" style="rounded=0;whiteSpace=wrap;html=1;" vertex="1" parent="1">
          <mxGeometry x="80" y="70" width="120" height="10" as="geometry" />
        </mxCell>
        <mxCell id="Np0HdGk0aIkS-JHJRyrp-12" value="" style="line;strokeWidth=2;html=1;" vertex="1" parent="1">
          <mxGeometry x="115" y="50" width="50" height="10" as="geometry" />
        </mxCell>
      </root>
    </mxGraphModel>
  </diagram>
</mxfile>
